<svg width="37" height="36" viewBox="0 0 37 36" fill="none" xmlns="http://www.w3.org/2000/svg">
<g clip-path="url(#clip0_36_21)">
<path d="M25.4375 13.5C25.4375 15.2902 24.7066 17.0071 23.4056 18.273C22.1045 19.5388 20.3399 20.25 18.5 20.25C16.6601 20.25 14.8955 19.5388 13.5944 18.273C12.2934 17.0071 11.5625 15.2902 11.5625 13.5C11.5625 11.7098 12.2934 9.9929 13.5944 8.72703C14.8955 7.46116 16.6601 6.75 18.5 6.75C20.3399 6.75 22.1045 7.46116 23.4056 8.72703C24.7066 9.9929 25.4375 11.7098 25.4375 13.5Z" fill="black"/>
<path fill-rule="evenodd" clip-rule="evenodd" d="M0 18C0 13.2261 1.9491 8.64773 5.41852 5.27208C8.88795 1.89642 13.5935 0 18.5 0C23.4065 0 28.1121 1.89642 31.5815 5.27208C35.0509 8.64773 37 13.2261 37 18C37 22.7739 35.0509 27.3523 31.5815 30.7279C28.1121 34.1036 23.4065 36 18.5 36C13.5935 36 8.88795 34.1036 5.41852 30.7279C1.9491 27.3523 0 22.7739 0 18ZM18.5 2.25C15.4516 2.25016 12.4652 3.08782 9.88456 4.66656C7.30389 6.24531 5.23384 8.50097 3.91267 11.1739C2.59149 13.8469 2.07289 16.8285 2.41656 19.7756C2.76022 22.7227 3.95219 25.5155 5.85525 27.8325C7.49713 25.2585 11.1116 22.5 18.5 22.5C25.8884 22.5 29.5006 25.2562 31.1448 27.8325C33.0478 25.5155 34.2398 22.7227 34.5834 19.7756C34.9271 16.8285 34.4085 13.8469 33.0873 11.1739C31.7662 8.50097 29.6961 6.24531 27.1154 4.66656C24.5348 3.08782 21.5484 2.25016 18.5 2.25Z" fill="black"/>
<rect x="34.1538" y="35.5325" width="443.051" height="53.2987" fill="#D9D9D9"/>
</g>
<defs>
<clipPath id="clip0_36_21">
<rect width="37" height="36" fill="white"/>
</clipPath>
</defs>
</svg>
