<svg width="173" height="32" viewBox="0 0 173 32" fill="none" xmlns="http://www.w3.org/2000/svg">
<path d="M158.492 4.64266L160.934 10.8453L161.275 11.712L162.203 11.7906L168.725 12.343L163.694 16.8961L163.045 17.484L163.238 18.3386L164.748 25.0267L159.305 21.5144L158.492 20.9894L157.679 21.5144L152.236 25.0267L153.746 18.3386L153.939 17.484L153.29 16.8961L148.259 12.343L154.781 11.7906L155.709 11.712L156.05 10.8453L158.492 4.64266Z" fill="#F1C644" stroke="#F1C644" stroke-width="3"/>
<path d="M17.7927 3.50026L21.1437 10.5653L21.5193 11.3573L22.3938 11.4188L30.6004 11.9958L24.5067 16.5732L23.6931 17.1844L23.9602 18.1663L25.8896 25.2594L18.501 21.3019L17.7927 20.9225L17.0845 21.3019L9.69584 25.2594L11.6253 18.1663L11.8924 17.1844L11.0788 16.5732L4.98507 11.9958L13.1917 11.4188L14.0661 11.3573L14.4418 10.5653L17.7927 3.50026Z" fill="#F1C644" stroke="#F1C644" stroke-width="3"/>
<path d="M89.7848 4.63914L92.299 11.0199L92.6404 11.8861L93.5681 11.9647L100.275 12.5323L95.105 17.2074L94.4546 17.7955L94.6479 18.6507L96.2011 25.5236L90.5976 21.9109L89.7848 21.3869L88.972 21.9109L83.3686 25.5236L84.9217 18.6507L85.115 17.7955L84.4647 17.2074L79.2941 12.5323L86.0015 11.9647L86.9293 11.8861L87.2706 11.0199L89.7848 4.63914Z" fill="#F1C644" stroke="#F1C644" stroke-width="3"/>
<path d="M55.2942 4.02517L57.9569 10.6556L58.3019 11.5148L59.2247 11.5914L66.2549 12.1752L60.8592 16.9623L60.1931 17.5533L60.393 18.421L62.0241 25.5035L56.0961 21.7534L55.2942 21.2461L54.4923 21.7534L48.5643 25.5035L50.1955 18.421L50.3953 17.5533L49.7292 16.9623L44.3335 12.1752L51.3637 11.5914L52.2865 11.5148L52.6316 10.6556L55.2942 4.02517Z" fill="#F1C644" stroke="#F1C644" stroke-width="3"/>
<path d="M123.454 4.70605L125.892 11.011L126.23 11.884L127.162 11.9645L133.733 12.531L128.647 17.2168L128.012 17.8019L128.199 18.6448L129.717 25.4911L124.278 21.9179L123.454 21.3769L122.63 21.9179L117.191 25.4911L118.709 18.6448L118.896 17.8019L118.261 17.2168L113.175 12.531L119.745 11.9645L120.678 11.884L121.016 11.011L123.454 4.70605Z" fill="#F1C644" stroke="#F1C644" stroke-width="3"/>
</svg>
